# xmcd CD database file
#
# Track frame offsets:
#	150
#	34390
#	51342
#	82030
#	100185
#	110295
#	135887
#	159567
#	176667
#	194017
#	212597
#	238020
#	264617
#	287437
#
# Disc length: 4069 seconds
#
# Revision: 0
# Processed by: cddbd v1.4PL0 Copyright (c) Steve Scherf et al.
# Submitted via: CDex 1.51
#
DISCID=c60fe30e
DTITLE=Dave Cliff Duo and Quartet - Sipping at Bells
DYEAR=1995
DGENRE=Jazz
TTITLE0=Bock to bock
TTITLE1=Sal's line
TTITLE2=How deep is the ocean
TTITLE3=Easy to love
TTITLE4=Nobody knows the trouble I've caused
TTITLE5=I guess I'll hang my tears out to dry
TTITLE6=A nightingale sang in Berkeley Square
TTITLE7=Lester's blues
TTITLE8=Indian summer
TTITLE9=That old feeling
TTITLE10=The touch of your lips
TTITLE11=Once I loved
TTITLE12=Conception
TTITLE13=Sipping at Bells
EXTD=YEAR: 1995
EXTT0=
EXTT1=
EXTT2=
EXTT3=
EXTT4=
EXTT5=
EXTT6=
EXTT7=
EXTT8=
EXTT9=
EXTT10=
EXTT11=
EXTT12=
EXTT13=
PLAYORDER=
